<?xml version="1.0" encoding="utf-8"?>
<!-- Generator: Adobe Illustrator 26.1.0, SVG Export Plug-In . SVG Version: 6.00 Build 0)  -->
<svg version="1.1" id="Слой_1" xmlns="http://www.w3.org/2000/svg" xmlns:xlink="http://www.w3.org/1999/xlink" x="0px" y="0px"
	 viewBox="0 0 1024 1024" style="enable-background:new 0 0 1024 1024;" xml:space="preserve">
<style type="text/css">
	.st0{fill:#FED843;}
</style>
<g>
	<path class="st0" d="M512,829c-174.8,0-317-142.2-317-317s142.2-317,317-317s317,142.2,317,317S686.8,829,512,829z M512,261.7
		C374,261.7,261.7,374,261.7,512S374,762.3,512,762.3S762.3,650,762.3,512S650,261.7,512,261.7z"/>
	<circle class="st0" cx="512" cy="55.4" r="55.4"/>
	<circle class="st0" cx="512" cy="968.6" r="55.4"/>
	<circle class="st0" cx="968.6" cy="512" r="55.4"/>
	<circle class="st0" cx="55.4" cy="512" r="55.4"/>
	<circle class="st0" cx="834.8" cy="834.8" r="55.4"/>
	<circle class="st0" cx="189.2" cy="189.2" r="55.4"/>
	<circle class="st0" cx="189.2" cy="834.8" r="55.4"/>
	<circle class="st0" cx="834.8" cy="189.2" r="55.4"/>
</g>
</svg>
